<svg id="Capa_1" data-name="Capa 1" xmlns="http://www.w3.org/2000/svg" viewBox="0 0 2009.2 695.01"><defs><style>.cls-1{fill:#fff;}.cls-2{fill:#999;}.cls-3{fill:red;}.cls-4{fill:#ff931e;}.cls-5{fill:#8cc63f;}.cls-6{font-size:60px;font-family:SourceSansRoman-Semibold, Source Sans Variable;font-weight:600;}.cls-7{letter-spacing:-0.01em;}.cls-8{letter-spacing:-0.01em;}.cls-9{fill:none;stroke:#999;stroke-miterlimit:10;stroke-width:7px;}.cls-10{fill:gray;}.cls-11{fill:#f7931e;}.cls-12{fill:lime;}.cls-13{font-size:36px;font-family:MyriadPro-Regular, Myriad Pro;}.cls-14{letter-spacing:-0.02em;}.cls-15{letter-spacing:-0.01em;}</style></defs><polygon class="cls-1" points="1732.04 354.6 1619.22 550.01 1844.86 550.01 1732.04 354.6"/><path class="cls-2" d="M1723,349.3l-3,5.21-8.22,14.25-12.13,21-14.85,25.71-16.2,28.07-16.36,28.33L1637,498.29,1624,520.7l-9.27,16.06c-1.47,2.54-3,5.07-4.4,7.63l-.19.32a10.6,10.6,0,0,0,9.07,15.8h216.46c2.93,0,5.87,0,8.81,0h.37a10.6,10.6,0,0,0,9.07-15.8l-3-5.21-8.23-14.25-12.12-21-14.85-25.72-16.21-28.06-16.35-28.33-15.25-26.42L1755,373.31l-9.27-16.06c-1.47-2.54-2.92-5.1-4.41-7.63l-.19-.32a10.48,10.48,0,0,0-14.36-3.77A10.7,10.7,0,0,0,1723,359.9l3,5.21,8.23,14.24,12.12,21,14.85,25.72,16.2,28.07,16.36,28.33L1809,508.89l12.94,22.41,9.27,16.06c1.47,2.54,2.91,5.1,4.41,7.63l.18.32,9.07-15.8H1628.4c-2.94,0-5.87,0-8.81,0h-.37l9.06,15.8,3-5.21,8.23-14.25,12.12-21,14.85-25.72,16.2-28.06,16.36-28.33,15.25-26.42,12.94-22.42,9.27-16c1.47-2.54,3-5.07,4.41-7.63l.18-.32a10.88,10.88,0,0,0,1.06-8.09A10.5,10.5,0,0,0,1723,349.3Z"/><circle class="cls-3" cx="1653.26" cy="311.51" r="41.5"/><circle class="cls-4" cx="1736.26" cy="304.51" r="41.5"/><circle class="cls-5" cx="1817.26" cy="308.51" r="41.5"/><polygon class="cls-1" points="875.64 404.4 762.82 599.81 988.47 599.81 875.64 404.4"/><path class="cls-2" d="M867.87,399.85l-3,5.21-8.23,14.25-12.12,21L829.67,466,813.46,494.1l-16.35,28.33-15.26,26.42-12.94,22.41-9.27,16c-1.46,2.55-3,5.08-4.4,7.63l-.19.33a9.08,9.08,0,0,0,7.77,13.54H979.28c2.94,0,5.88,0,8.81,0h.38a9.08,9.08,0,0,0,7.77-13.54l-3-5.21L985,575.81l-12.12-21L958,529.09,941.83,501l-16.36-28.33-15.25-26.42-12.94-22.41L888,407.81c-1.47-2.55-2.91-5.11-4.41-7.63l-.18-.33c-2.36-4.07-8.25-5.85-12.32-3.22a9.17,9.17,0,0,0-3.23,12.31l3,5.21,8.23,14.25,12.12,21,14.85,25.72,16.2,28.06,16.36,28.33,15.25,26.42,12.94,22.41,9.27,16.06c1.47,2.54,2.9,5.11,4.41,7.63l.18.32,7.78-13.54H772c-2.94,0-5.88,0-8.81,0h-.38l7.77,13.54,3-5.21,8.23-14.25,12.12-21,14.85-25.72L825,510.11l16.35-28.33,15.26-26.42L869.56,433l9.26-16.06c1.47-2.54,3-5.07,4.41-7.63l.19-.32c2.35-4.08,1.08-10-3.23-12.31A9.17,9.17,0,0,0,867.87,399.85Z"/><circle class="cls-3" cx="787.87" cy="365.31" r="41.5"/><circle class="cls-4" cx="870.87" cy="361.31" r="41.5"/><path class="cls-2" d="M872.26,431.81q0,11.51.16,23c0,3.86,6,3.87,6,0q-.13-11.51-.16-23c0-3.86-6-3.87-6,0Z"/><circle class="cls-5" cx="953.87" cy="363.31" r="41.5"/><path class="cls-2" d="M873.47,518q.43,28.49.65,57c0,3.86,6,3.87,6,0q-.25-28.5-.65-57c-.06-3.86-6.06-3.87-6,0Z"/><path class="cls-2" d="M873,466.89q0,20,.16,39.92c0,3.86,6,3.87,6,0q-.14-20-.16-39.92c0-3.86-6-3.86-6,0Z"/><text class="cls-6" transform="translate(658.84 653.62)">Smart <tspan class="cls-7" x="170.28" y="0">R</tspan><tspan class="cls-8" x="205.2" y="0">o</tspan><tspan x="237.42" y="0">ad Unit</tspan></text><path class="cls-9" d="M1697.8,462.28a55.24,55.24,0,0,1,71.1-1.43"/><path class="cls-9" d="M1707.89,485.32a37.51,37.51,0,0,1,23.49-9.11,39.67,39.67,0,0,1,26.58,9"/><path class="cls-9" d="M1719.23,506.08a20.48,20.48,0,0,1,30,.09"/><text class="cls-6" transform="translate(1520.19 613.42)">Smart <tspan class="cls-7" x="170.28" y="0">R</tspan><tspan class="cls-8" x="205.2" y="0">o</tspan><tspan x="237.42" y="0">ad Unit</tspan></text><circle class="cls-10" cx="1734.76" cy="523.01" r="10"/><polygon class="cls-1" points="1331.37 10.51 1181.26 270.51 1481.48 270.51 1331.37 10.51"/><path class="cls-2" d="M1322.31,5.21l-4,7-10.89,18.86-16.21,28.08-19.64,34-21.65,37.51-21.72,37.61-20.38,35.31-17.11,29.63-12.39,21.46c-1.94,3.37-3.92,6.72-5.83,10.1l-.25.44a10.6,10.6,0,0,0,9.06,15.8h288c3.89,0,7.78,0,11.67,0h.51a10.6,10.6,0,0,0,9.07-15.8l-4-7-10.89-18.86-16.2-28.08-19.64-34-21.66-37.51-21.71-37.61L1376,66.84l-17.11-29.63-12.39-21.46c-1.94-3.37-3.85-6.75-5.83-10.1l-.25-.44c-2.75-4.76-9.62-6.83-14.37-3.77a10.7,10.7,0,0,0-3.76,14.37l4,7,10.89,18.86,16.21,28.08,19.64,34,21.66,37.51,21.71,37.61,20.38,35.31,17.11,29.63,12.39,21.46c1.94,3.36,3.85,6.76,5.83,10.1.09.14.17.29.26.44l9.06-15.8h-288c-3.89,0-7.79-.05-11.68,0h-.51l9.07,15.8,4-7L1205.25,250l16.21-28.08,19.64-34,21.66-37.51,21.71-37.61,20.39-35.31L1322,47.81l12.38-21.46c2-3.37,3.92-6.72,5.83-10.1l.26-.44c2.75-4.76,1.26-11.71-3.77-14.37S1325.24.13,1322.31,5.21Z"/><circle class="cls-3" cx="1331.26" cy="82.51" r="14.5"/><path class="cls-9" d="M1378.73,215.3c-4.57,5-23,23.87-50.88,23.69-25.7-.16-43.08-16.48-48.08-21.55"/><path class="cls-9" d="M1354.52,202.08c-1.77,2-10.06,10.79-23.5,11.33-15.13.61-25-9.72-26.56-11.41"/><path class="cls-9" d="M1343.25,184c-1,1.31-6.07,7.74-14.27,8.08-9.13.36-14.9-7.15-15.75-8.3"/><text class="cls-6" transform="translate(1117.19 336.66)">Smart <tspan class="cls-7" x="170.28" y="0">R</tspan><tspan class="cls-8" x="205.2" y="0">o</tspan><tspan x="237.42" y="0">ad Unit</tspan></text><circle class="cls-11" cx="1331.26" cy="117.51" r="14.5"/><circle class="cls-12" cx="1331.26" cy="153.51" r="14.5"/><text class="cls-13" transform="translate(783.49 269.02)"><tspan class="cls-14">P</tspan><tspan class="cls-15" x="18.58" y="0">r</tspan><tspan x="29.99" y="0">opuesta 1</tspan></text><text class="cls-13" transform="translate(1442.73 75.16)"><tspan class="cls-14">P</tspan><tspan class="cls-15" x="18.58" y="0">r</tspan><tspan x="29.99" y="0">opuesta 2</tspan></text><text class="cls-13" transform="translate(1698.73 210.16)"><tspan class="cls-14">P</tspan><tspan class="cls-15" x="18.58" y="0">r</tspan><tspan x="29.99" y="0">opuesta 3</tspan></text><polygon class="cls-1" points="326.31 212.65 213.49 408.06 439.13 408.06 326.31 212.65"/><path class="cls-2" d="M317.24,207.35l-3,5.21L306,226.8l-12.13,21L279,273.52l-16.2,28.07-16.36,28.33-15.25,26.42-12.94,22.41L209,394.81c-1.47,2.54-3,5.07-4.4,7.63l-.19.32a10.6,10.6,0,0,0,9.07,15.8H430c2.93,0,5.87,0,8.81,0h.37a10.6,10.6,0,0,0,9.07-15.8l-3-5.21L437,383.3l-12.12-21L410,336.58l-16.21-28.06-16.35-28.33-15.25-26.42-12.94-22.42-9.27-16c-1.47-2.54-2.92-5.1-4.41-7.63a3.37,3.37,0,0,0-.19-.32A10.48,10.48,0,0,0,321,203.58,10.7,10.7,0,0,0,317.24,218l3,5.2,8.23,14.25,12.12,21,14.85,25.72,16.2,28.07L388,340.52l15.25,26.42,12.94,22.41,9.27,16.06c1.47,2.54,2.91,5.1,4.41,7.63l.18.32,9.07-15.8H222.67c-2.94,0-5.87,0-8.81,0h-.37l9.06,15.8,3-5.21,8.23-14.25,12.12-21,14.85-25.72L277,319.11l16.36-28.32,15.25-26.42L321.51,242l9.27-16c1.47-2.55,3-5.08,4.41-7.63l.18-.32a10.9,10.9,0,0,0,1.06-8.1,10.5,10.5,0,0,0-19.19-2.5Z"/><circle class="cls-3" cx="364.79" cy="382.03" r="13.02"/><path class="cls-9" d="M290.69,308.59c3.18-3.06,16.08-14.76,35.68-15,18.1-.22,30.44,9.47,34,12.48"/><path class="cls-9" d="M300.77,332.81a35.69,35.69,0,0,1,22.94-10A37.06,37.06,0,0,1,349.85,332"/><path class="cls-9" d="M312.06,354.61A20.29,20.29,0,0,1,326,347.54c8.95-.47,14.66,5.78,15.51,6.73"/><text class="cls-6" transform="translate(108.46 469.47)">Smart <tspan class="cls-7" x="170.28" y="0">R</tspan><tspan class="cls-8" x="205.2" y="0">o</tspan><tspan x="237.42" y="0">ad Unit</tspan></text><text class="cls-13" transform="translate(0 111.21)"><tspan class="cls-14">P</tspan><tspan class="cls-15" x="18.58" y="0">r</tspan><tspan x="29.99" y="0">opuesta 4</tspan></text><circle class="cls-12" cx="286.93" cy="381.07" r="13.17"/><circle class="cls-11" cx="326.44" cy="381.62" r="13.62"/></svg>